# xmcd
#
# Track frame offsets:
#	150
#	17015
#	34960
#	36406
#	50048
#	69454
#	70562
#	85230
#
# Disc length: 1374 seconds
#
# Revision: 1
# Processed by: cddbd v1.5PL3 Copyright (c) Steve Scherf et al.
# Submitted via: CDmax 2.0
#
DISCID=69055c08
DTITLE=Janis Joplin - Jorma Kaukonen - The Typewriter Tape
DYEAR=1964
DGENRE=Blues
TTITLE0=Trouble In Mind
TTITLE1=Long Black Train
TTITLE2=Kansas City Blues (false start)
TTITLE3=Kansas City Blues
TTITLE4=Hesitation Blues
TTITLE5=strumming
TTITLE6=Nobody Knows You When You're Down and Out
TTITLE7=Daddy, Daddy, Daddy
EXTD=Jorma - Janis jamming in Jorma's house in San Francisco, 06/25/1964.\n\n
EXTD=There's a typewriter going in the background through the whole session h
EXTD=ence the name.
EXTT0=
EXTT1=
EXTT2=
EXTT3=
EXTT4=
EXTT5=
EXTT6=
EXTT7=
PLAYORDER=
